HIERARCHY
ROOT Hips
{
	OFFSET 0.000000 121.760803 0.000000
	CHANNELS 6 Xposition Yposition Zposition Xrotation Yrotation Zrotation 
	JOINT Spine
	{
		OFFSET 0.072000 7.257294 -0.789700
		CHANNELS 3 Xrotation Yrotation Zrotation
		JOINT Spine1
		{
			OFFSET 0.000000 12.508769 -0.658067
			CHANNELS 3 Xrotation Yrotation Zrotation
			JOINT Spine1_split
			{
				OFFSET 0.000000 12.508769 -0.658067
				CHANNELS 3 Xrotation Yrotation Zrotation
				JOINT Spine2
				{
					OFFSET 0.000000 12.508769 -0.658067
					CHANNELS 3 Xrotation Yrotation Zrotation
					JOINT Neck
					{
						OFFSET 0.000000 14.033295 7.520400
						CHANNELS 3 Xrotation Yrotation Zrotation
						JOINT Head
						{
							OFFSET 0.000000 8.198502 5.703100
							CHANNELS 3 Xrotation Yrotation Zrotation
							JOINT HeadTop_End
							{
								OFFSET 0.000000 17.760803 13.332701
								CHANNELS 3 Xrotation Yrotation Zrotation
								End Site
								{
									OFFSET 0.000000 0.000000 0.000000
								}
							}
						}
					}
					JOINT LeftShoulder
					{
						OFFSET 6.292450 5.785301 -0.669000
						CHANNELS 3 Xrotation Yrotation Zrotation
						JOINT LeftShoulder_split
						{
							OFFSET 6.292450 5.785301 -0.669000
							CHANNELS 3 Xrotation Yrotation Zrotation
							JOINT LeftArm
							{
								OFFSET 13.907140 -6.093903 1.965100
								CHANNELS 3 Xrotation Yrotation Zrotation
								JOINT LeftForeArm
								{
									OFFSET 34.140198 0.000000 0.000000
									CHANNELS 3 Xrotation Yrotation Zrotation
									JOINT LeftHand
									{
										OFFSET 40.960209 0.000000 0.000000
										CHANNELS 3 Xrotation Yrotation Zrotation
										JOINT LeftHandThumb1
										{
											OFFSET 10.006996 -7.170425 9.573125
											CHANNELS 3 Xrotation Yrotation Zrotation
											JOINT LeftHandThumb2
											{
												OFFSET 1.835007 -1.059448 1.059443
												CHANNELS 3 Xrotation Yrotation Zrotation
												JOINT LeftHandThumb3
												{
													OFFSET 2.112267 -1.219513 1.219518
													CHANNELS 3 Xrotation Yrotation Zrotation
													JOINT LeftHandThumb4
													{
														OFFSET 4.843811 -2.796570 2.796576
														CHANNELS 3 Xrotation Yrotation Zrotation
														End Site
														{
															OFFSET 0.000000 0.000000 0.000000
														}
													}
												}
											}
										}
										JOINT LeftHandIndex1
										{
											OFFSET 18.389847 -0.922348 4.596882
											CHANNELS 3 Xrotation Yrotation Zrotation
											JOINT LeftHandIndex2
											{
												OFFSET 4.711273 0.000000 0.000000
												CHANNELS 3 Xrotation Yrotation Zrotation
												JOINT LeftHandIndex3
												{
													OFFSET 2.886131 0.000000 0.000000
													CHANNELS 3 Xrotation Yrotation Zrotation
													JOINT LeftHandIndex4
													{
														OFFSET 6.145912 0.000000 0.000000
														CHANNELS 3 Xrotation Yrotation Zrotation
														End Site
														{
															OFFSET 0.000000 0.000000 0.000000
														}
													}
												}
											}
										}
										JOINT LeftHandMiddle1
										{
											OFFSET 18.013008 0.000000 0.000000
											CHANNELS 3 Xrotation Yrotation Zrotation
											JOINT LeftHandMiddle2
											{
												OFFSET 4.946693 0.000000 0.000000
												CHANNELS 3 Xrotation Yrotation Zrotation
												JOINT LeftHandMiddle3
												{
													OFFSET 3.342232 0.000000 0.000000
													CHANNELS 3 Xrotation Yrotation Zrotation
													JOINT LeftHandMiddle4
													{
														OFFSET 4.461754 0.000000 0.000000
														CHANNELS 3 Xrotation Yrotation Zrotation
														End Site
														{
															OFFSET 0.000000 0.000000 0.000000
														}
													}
												}
											}
										}
										JOINT LeftHandRing1
										{
											OFFSET 15.849892 -0.102921 -4.126150
											CHANNELS 3 Xrotation Yrotation Zrotation
											JOINT LeftHandRing2
											{
												OFFSET 3.527054 0.000000 0.000000
												CHANNELS 3 Xrotation Yrotation Zrotation
												JOINT LeftHandRing3
												{
													OFFSET 2.961098 0.000000 0.000000
													CHANNELS 3 Xrotation Yrotation Zrotation
													JOINT LeftHandRing4
													{
														OFFSET 4.927200 0.000000 0.000000
														CHANNELS 3 Xrotation Yrotation Zrotation
														End Site
														{
															OFFSET 0.000000 0.000000 0.000000
														}
													}
												}
											}
										}
										JOINT LeftHandPinky1
										{
											OFFSET 12.791824 -0.832031 -6.799156
											CHANNELS 3 Xrotation Yrotation Zrotation
											JOINT LeftHandPinky2
											{
												OFFSET 3.327133 0.000000 0.000000
												CHANNELS 3 Xrotation Yrotation Zrotation
												JOINT LeftHandPinky3
												{
													OFFSET 3.014900 0.000000 0.000000
													CHANNELS 3 Xrotation Yrotation Zrotation
													JOINT LeftHandPinky4
													{
														OFFSET 5.847786 0.000000 0.000000
														CHANNELS 3 Xrotation Yrotation Zrotation
														End Site
														{
															OFFSET 0.000000 0.000000 0.000000
														}
													}
												}
											}
										}
									}
								}
							}
						}
					}
					JOINT RightShoulder
					{
						OFFSET -6.292450 5.785301 -0.669000
						CHANNELS 3 Xrotation Yrotation Zrotation
						JOINT RightShoulder_split
						{
							OFFSET -6.292450 5.785301 -0.669000
							CHANNELS 3 Xrotation Yrotation Zrotation
							JOINT RightArm
							{
								OFFSET -13.907140 -6.093903 1.965100
								CHANNELS 3 Xrotation Yrotation Zrotation
								JOINT RightForeArm
								{
									OFFSET -34.140198 0.000000 0.000000
									CHANNELS 3 Xrotation Yrotation Zrotation
									JOINT RightHand
									{
										OFFSET -40.960209 0.000000 0.000000
										CHANNELS 3 Xrotation Yrotation Zrotation
										JOINT RightHandThumb1
										{
											OFFSET -10.007050 -7.170456 9.573117
											CHANNELS 3 Xrotation Yrotation Zrotation
											JOINT RightHandThumb2
											{
												OFFSET -1.835007 -1.059448 1.059443
												CHANNELS 3 Xrotation Yrotation Zrotation
												JOINT RightHandThumb3
												{
													OFFSET -2.112267 -1.219513 1.219518
													CHANNELS 3 Xrotation Yrotation Zrotation
													JOINT RightHandThumb4
													{
														OFFSET -4.843834 -2.796585 2.796590
														CHANNELS 3 Xrotation Yrotation Zrotation
														End Site
														{
															OFFSET 0.000000 0.000000 0.000000
														}
													}
												}
											}
										}
										JOINT RightHandIndex1
										{
											OFFSET -18.389870 -0.922424 4.596786
											CHANNELS 3 Xrotation Yrotation Zrotation
											JOINT RightHandIndex2
											{
												OFFSET -4.711273 0.000000 0.000000
												CHANNELS 3 Xrotation Yrotation Zrotation
												JOINT RightHandIndex3
												{
													OFFSET -2.886131 0.000000 0.000000
													CHANNELS 3 Xrotation Yrotation Zrotation
													JOINT RightHandIndex4
													{
														OFFSET -6.145920 0.000000 0.000000
														CHANNELS 3 Xrotation Yrotation Zrotation
														End Site
														{
															OFFSET 0.000000 0.000000 0.000000
														}
													}
												}
											}
										}
										JOINT RightHandMiddle1
										{
											OFFSET -18.013008 0.000000 0.000000
											CHANNELS 3 Xrotation Yrotation Zrotation
											JOINT RightHandMiddle2
											{
												OFFSET -4.946693 0.000000 0.000000
												CHANNELS 3 Xrotation Yrotation Zrotation
												JOINT RightHandMiddle3
												{
													OFFSET -3.342232 0.000000 0.000000
													CHANNELS 3 Xrotation Yrotation Zrotation
													JOINT RightHandMiddle4
													{
														OFFSET -4.461754 0.000000 0.000000
														CHANNELS 3 Xrotation Yrotation Zrotation
														End Site
														{
															OFFSET 0.000000 0.000000 0.000000
														}
													}
												}
											}
										}
										JOINT RightHandRing1
										{
											OFFSET -15.849876 -0.102936 -4.126237
											CHANNELS 3 Xrotation Yrotation Zrotation
											JOINT RightHandRing2
											{
												OFFSET -3.527054 0.000000 0.000000
												CHANNELS 3 Xrotation Yrotation Zrotation
												JOINT RightHandRing3
												{
													OFFSET -2.961098 0.000000 0.000000
													CHANNELS 3 Xrotation Yrotation Zrotation
													JOINT RightHandRing4
													{
														OFFSET -4.927200 0.000000 0.000000
														CHANNELS 3 Xrotation Yrotation Zrotation
														End Site
														{
															OFFSET 0.000000 0.000000 0.000000
														}
													}
												}
											}
										}
										JOINT RightHandPinky1
										{
											OFFSET -12.791786 -0.832077 -6.799222
											CHANNELS 3 Xrotation Yrotation Zrotation
											JOINT RightHandPinky2
											{
												OFFSET -3.327133 0.000000 0.000000
												CHANNELS 3 Xrotation Yrotation Zrotation
												JOINT RightHandPinky3
												{
													OFFSET -3.014900 0.000000 0.000000
													CHANNELS 3 Xrotation Yrotation Zrotation
													JOINT RightHandPinky4
													{
														OFFSET -5.847786 0.000000 0.000000
														CHANNELS 3 Xrotation Yrotation Zrotation
														End Site
														{
															OFFSET 0.000000 0.000000 0.000000
														}
													}
												}
											}
										}
									}
								}
							}
						}
					}
				}
			}
		}
	}
	JOINT LeftUpLeg
	{
		OFFSET 13.026900 -6.336304 -1.092800
		CHANNELS 3 Xrotation Yrotation Zrotation
		JOINT LeftLeg
		{
			OFFSET 0.524474 -46.096886 9.782700
			CHANNELS 3 Xrotation Yrotation Zrotation
			JOINT LeftFoot
			{
				OFFSET -0.524474 -53.427422 -12.948200
				CHANNELS 3 Xrotation Yrotation Zrotation
				JOINT LeftToeBase
				{
					OFFSET 0.192200 -14.009700 16.364100
					CHANNELS 3 Xrotation Yrotation Zrotation
					JOINT LeftToe_End
					{
						OFFSET -1.784700 -0.561700 9.474800
						CHANNELS 3 Xrotation Yrotation Zrotation
						End Site
						{
							OFFSET 0.000000 0.000000 0.000000
						}
					}
				}
			}
		}
	}
	JOINT RightUpLeg
	{
		OFFSET -12.883000 -6.336304 -1.092800
		CHANNELS 3 Xrotation Yrotation Zrotation
		JOINT RightLeg
		{
			OFFSET -0.524587 -46.096825 9.782800
			CHANNELS 3 Xrotation Yrotation Zrotation
			JOINT RightFoot
			{
				OFFSET 0.524587 -53.427383 -12.948300
				CHANNELS 3 Xrotation Yrotation Zrotation
				JOINT RightToeBase
				{
					OFFSET -0.192200 -14.009700 16.364100
					CHANNELS 3 Xrotation Yrotation Zrotation
					JOINT RightToe_End
					{
						OFFSET 1.784700 -0.561700 9.474800
						CHANNELS 3 Xrotation Yrotation Zrotation
						End Site
						{
							OFFSET 0.000000 0.000000 0.000000
						}
					}
				}
			}
		}
	}
}
MOTION
Frames: 5
Frame Time: 0.016667
0.109594 134.250732 -0.335571 -89.651021 0.355924 0.722099 1.065822 -1.178677 0.944771 -0.317535 -2.434543 0.230484 0.000000 0.000000 0.000000 -0.303412 -2.418348 0.331944 -10.007537 0.102138 -1.808070 8.692139 -2.170252 1.510696 -0.000000 -0.000000 -0.000000 0.422246 -0.103000 -4.005444 0.000000 0.000000 0.000000 35.263652 -28.378538 -54.538405 0.000208 -80.454185 0.000238 -13.958257 -3.109590 -10.085393 6.590527 -4.958680 16.122643 7.178853 21.567335 2.147318 -3.980818 36.507511 21.976007 -0.000001 -0.000001 0.000000 0.659516 4.932342 -26.024467 0.169789 1.401617 -13.813544 0.169799 1.401623 -13.813546 -0.000001 0.000000 0.000001 1.376915 6.461955 -24.994172 0.169879 1.401956 -13.817118 0.169787 1.401627 -13.813567 -0.000000 0.000003 -0.000001 2.098711 8.644293 -21.209684 0.169787 1.401605 -13.813551 0.169785 1.401636 -13.813547 0.000002 -0.000003 -0.000000 2.123415 10.735867 -14.817573 0.167504 1.392255 -13.719341 0.169820 1.401707 -13.814468 0.000001 0.000003 0.000003 0.646680 1.792566 13.881981 0.000000 0.000000 0.000000 39.542957 30.913347 33.651662 0.000121 101.347829 -0.000094 -34.905333 -9.303378 11.136935 -13.111073 7.817367 -0.096471 7.918239 -27.751665 -3.100783 -2.785625 -37.960737 -21.297256 0.000002 0.000000 0.000000 2.082848 12.897803 37.347447 0.497035 -2.095307 26.687149 0.497047 -2.095307 26.687122 0.000001 -0.000002 -0.000001 -4.321305 1.650222 38.533482 0.529953 -2.159511 27.573965 0.497635 -2.096487 26.703345 0.000000 0.000002 -0.000000 -1.394396 -1.262394 31.742013 0.254169 -1.518989 18.997020 0.249591 -1.505615 18.823352 0.000000 -0.000001 0.000001 0.189704 -3.422247 14.147213 0.162225 -1.219714 15.150966 0.162213 -1.219718 15.150970 0.000001 0.000001 -0.000000 -5.165725 17.352874 19.147940 4.132236 7.439906 0.328612 29.612398 29.484875 -30.980287 -4.397748 0.000005 -0.000000 0.000001 -0.000000 0.000000 -4.355317 -17.131496 -12.371332 3.268662 -7.171910 -7.616778 38.787965 -29.663313 30.903823 -9.125963 -0.000004 -0.000022 0.000000 0.000000 -0.000000 
0.101957 134.245987 -0.288239 -89.671914 0.449443 0.851207 1.044243 -1.139148 0.948442 -0.418968 -2.373051 0.195800 0.000000 0.000000 0.000000 -0.397363 -2.369104 0.309556 -9.992516 0.068523 -1.711925 8.739667 -2.317847 1.567081 -0.000000 0.000000 -0.000000 0.461631 -0.727168 -4.005712 0.000000 0.000000 0.000000 35.651678 -28.307478 -54.248286 0.000076 -80.590044 0.000105 -14.391671 -3.136428 -9.670760 6.590528 -4.958669 16.122646 7.178858 21.567328 2.147320 -3.980825 36.507511 21.976011 0.000002 -0.000002 -0.000000 0.659515 4.932347 -26.024465 0.169788 1.401617 -13.813541 0.169798 1.401628 -13.813544 -0.000002 0.000001 0.000000 1.376914 6.461963 -24.994176 0.169881 1.401958 -13.817118 0.169790 1.401627 -13.813563 -0.000000 -0.000001 -0.000001 2.098710 8.644300 -21.209682 0.169796 1.401605 -13.813550 0.169785 1.401636 -13.813544 0.000000 0.000002 -0.000001 2.123417 10.735876 -14.817571 0.167507 1.392252 -13.719341 0.169819 1.401719 -13.814464 -0.000004 -0.000003 -0.000000 0.607865 1.777501 13.847704 0.000000 0.000000 0.000000 37.902571 30.020054 36.590082 0.000357 101.247118 -0.000344 -36.596857 -9.378172 11.050574 -12.879193 8.193478 0.480501 7.914302 -27.716993 -3.098597 -2.799412 -37.469608 -21.193758 -0.000001 -0.000000 0.000001 2.149274 12.733858 36.856862 0.492757 -2.086752 26.569576 0.467268 -2.035035 25.860916 -0.000001 0.000001 0.000002 -4.264399 1.622382 38.347346 0.526197 -2.152308 27.474084 0.488458 -2.078134 26.451152 -0.000002 -0.000000 0.000003 -1.380216 -1.295204 31.813341 0.261202 -1.539252 19.260481 0.249823 -1.506323 18.832537 0.000002 -0.000002 -0.000000 0.197472 -3.452538 14.531509 0.170486 -1.249871 15.534978 0.170484 -1.249874 15.534987 0.000003 -0.000000 0.000001 -5.166525 17.171594 18.990682 4.268438 7.322853 0.378868 29.598591 29.490889 -30.920601 -4.907029 -0.000012 -0.000006 -0.000000 0.000001 0.000000 -4.375598 -17.270652 -12.619655 3.406699 -6.852655 -7.350069 39.114642 -29.690726 30.881840 -9.012615 0.000000 -0.000006 -0.000000 0.000001 -0.000000 
0.148643 134.240631 -0.277870 -89.707957 0.550607 0.957031 1.023356 -1.101778 0.972285 -0.521691 -2.314062 0.161337 0.000000 0.000000 0.000000 -0.492039 -2.319871 0.287192 -9.946355 0.033122 -1.614218 8.870998 -2.467349 1.625963 -0.000000 -0.000001 0.000000 0.507660 -1.375825 -4.005945 0.000000 0.000000 0.000000 35.944495 -28.114959 -54.137083 -0.000120 -80.729257 -0.000127 -14.694925 -3.140321 -9.355484 6.590528 -4.958673 16.122648 7.178857 21.567331 2.147316 -3.980820 36.507515 21.976016 0.000000 0.000002 0.000000 0.659513 4.932349 -26.024464 0.169787 1.401620 -13.813543 0.169797 1.401625 -13.813546 -0.000004 -0.000002 0.000002 1.376912 6.461960 -24.994171 0.169880 1.401954 -13.817118 0.169790 1.401628 -13.813564 -0.000002 -0.000002 0.000001 2.098708 8.644297 -21.209679 0.169793 1.401608 -13.813550 0.169784 1.401633 -13.813547 0.000002 0.000002 -0.000001 2.123412 10.735872 -14.817566 0.167509 1.392255 -13.719338 0.169821 1.401716 -13.814468 0.000002 -0.000000 0.000001 0.569193 1.762515 13.812978 0.000000 0.000000 0.000000 35.720704 29.082102 39.718578 0.000540 100.780124 -0.000550 -38.395792 -9.656049 11.081968 -12.219783 9.247323 2.040354 7.903552 -27.622904 -3.092662 -2.841981 -36.136724 -20.915409 -0.000003 -0.000000 -0.000001 2.313693 12.270299 35.528131 0.481194 -2.063501 26.250428 0.390881 -1.869339 23.618617 -0.000000 -0.000001 0.000001 -4.110308 1.543898 37.842335 0.516068 -2.132711 27.202982 0.463930 -2.028124 25.766598 -0.000001 0.000002 -0.000002 -1.341798 -1.387166 32.035838 0.281863 -1.597179 20.016016 0.251145 -1.510180 18.882592 -0.000001 -0.000001 0.000001 0.220589 -3.538235 15.622319 0.195086 -1.335138 16.624921 0.195082 -1.335141 16.624923 0.000003 0.000000 -0.000001 -5.141237 16.980421 18.823247 4.417112 7.210544 0.437002 29.611404 29.477088 -30.830651 -5.419513 -0.000012 0.000003 0.000001 -0.000002 0.000000 -4.375329 -17.415046 -12.876001 3.424196 -6.571566 -7.095981 39.873726 -29.728439 30.912364 -8.902580 0.000020 -0.000006 -0.000000 -0.000001 0.000000 
0.206500 134.234085 -0.269485 -89.747729 0.653846 1.058069 1.002532 -1.064822 0.997714 -0.624389 -2.255073 0.126878 0.000000 0.000000 0.000000 -0.586715 -2.270638 0.264827 -9.868838 -0.003011 -1.517639 9.081819 -2.617592 1.685802 -0.000000 0.000001 -0.000000 0.565016 -2.038755 -3.968433 0.000000 0.000000 0.000000 36.227836 -27.974500 -54.031212 0.000070 -80.847822 0.000063 -15.031144 -3.167382 -9.004443 6.590527 -4.958670 16.122646 7.178854 21.567330 2.147318 -3.980817 36.507508 21.976018 -0.000002 -0.000001 0.000001 0.659514 4.932347 -26.024467 0.169793 1.401620 -13.813541 0.169794 1.401624 -13.813547 -0.000002 -0.000001 0.000002 1.376914 6.461963 -24.994171 0.169878 1.401954 -13.817116 0.169790 1.401628 -13.813568 0.000000 -0.000001 0.000001 2.098710 8.644299 -21.209684 0.169797 1.401604 -13.813551 0.169788 1.401638 -13.813548 0.000001 -0.000002 -0.000000 2.123412 10.735871 -14.817569 0.167505 1.392253 -13.719334 0.169819 1.401709 -13.814469 0.000001 0.000001 0.000003 0.532903 1.739977 13.779531 0.000000 0.000000 0.000000 33.134590 28.142893 42.894507 0.000336 99.988444 -0.000345 -40.318736 -10.120796 11.119187 -11.190739 10.888585 4.309746 7.887734 -27.484224 -3.083851 -2.917719 -34.172802 -20.511234 0.000003 0.000001 0.000003 2.511585 11.547088 33.578139 0.464404 -2.029121 25.780148 0.290266 -1.620018 20.314975 -0.000000 -0.000002 0.000001 -3.884890 1.421014 37.098692 0.501309 -2.103756 26.803505 0.428870 -1.953907 24.757824 0.000002 -0.000003 0.000002 -1.284666 -1.528350 32.422256 0.316140 -1.688247 21.211443 0.254430 -1.519772 19.007248 -0.000001 -0.000002 -0.000001 0.259992 -3.671161 17.326566 0.236721 -1.467368 18.327708 0.236731 -1.467367 18.327710 -0.000003 -0.000002 0.000001 -5.112394 16.785046 18.655063 4.573812 7.094872 0.495259 29.627294 29.461925 -30.690502 -5.936456 0.000020 -0.000020 0.000000 -0.000000 0.000000 -4.383611 -17.556948 -13.139151 3.415976 -6.318675 -6.845333 40.711489 -29.766610 30.955251 -8.794711 -0.000008 0.000016 -0.000001 0.000001 -0.000001 
0.293442 134.228790 -0.259285 -89.780330 0.754959 1.149605 0.981411 -1.027784 1.029363 -0.725592 -2.193579 0.092202 0.000000 0.000000 0.000000 -0.680583 -2.221396 0.242446 -9.759814 -0.038812 -1.424881 9.367738 -2.767413 1.745068 -0.000000 -0.000000 -0.000000 0.624296 -2.705505 -3.943881 0.000000 0.000000 0.000000 36.534661 -27.843707 -53.883014 0.000464 -80.975854 0.000439 -15.391763 -3.197143 -8.631284 6.590527 -4.958676 16.122641 7.178859 21.567330 2.147321 -3.980817 36.507511 21.976016 -0.000002 0.000001 0.000001 0.659514 4.932346 -26.024465 0.169786 1.401619 -13.813537 0.169795 1.401626 -13.813546 -0.000001 -0.000002 -0.000001 1.376913 6.461959 -24.994181 0.169881 1.401957 -13.817114 0.169789 1.401627 -13.813568 -0.000002 0.000001 -0.000000 2.098709 8.644295 -21.209684 0.169795 1.401608 -13.813551 0.169791 1.401633 -13.813545 0.000002 0.000002 -0.000000 2.123417 10.735868 -14.817573 0.167503 1.392250 -13.719337 0.169816 1.401715 -13.814466 0.000003 0.000002 -0.000001 0.504912 1.691345 13.749588 0.000000 0.000000 0.000000 30.303408 27.254038 45.899346 -0.000555 98.894801 0.000571 -42.437427 -10.685836 11.098020 -9.853365 13.032281 7.008859 7.868531 -27.315830 -3.073125 -3.029356 -31.788694 -20.028235 0.000001 -0.000003 -0.000001 2.676066 10.608307 31.222728 0.444396 -1.987184 25.209101 0.187686 -1.310120 16.304454 0.000001 -0.000000 0.000001 -3.614154 1.260203 36.196741 0.483641 -2.068468 26.318490 0.388099 -1.862953 23.533063 0.000001 -0.000004 0.000000 -1.213862 -1.708734 32.985326 0.364428 -1.807708 22.794605 0.260650 -1.537698 19.240308 0.000000 0.000000 -0.000000 0.317318 -3.842791 19.551266 0.296954 -1.637964 20.550284 0.296954 -1.637968 20.550282 0.000003 0.000001 0.000003 -5.102183 16.588885 18.484951 4.765152 6.982775 0.555145 29.653905 29.443050 -30.541894 -6.412980 0.000001 -0.000020 0.000000 0.000001 0.000000 -4.445821 -17.685008 -13.419658 3.390952 -6.136899 -6.602422 41.646214 -29.802120 31.020544 -8.688609 0.000003 -0.000002 -0.000001 -0.000000 0.000000 
